<svg width="45" height="45" viewBox="0 0 45 45" fill="none" xmlns="http://www.w3.org/2000/svg">
<circle cx="22.5" cy="22.5" r="22.5" fill="#6CE4F8"/>
<g clip-path="url(#clip0_113_124)">
<path fill-rule="evenodd" clip-rule="evenodd" d="M36.001 23.0657C36.001 21.3084 33.762 19.6439 30.3276 18.6097C31.1208 15.1706 30.7671 12.4352 29.2158 11.5587C28.8577 11.3536 28.4402 11.2565 27.9832 11.2565V12.4633C28.2358 12.4633 28.4402 12.513 28.6116 12.6036C29.3608 13.0246 29.6838 14.6309 29.4312 16.6969C29.3696 17.2043 29.2707 17.7397 29.1499 18.2859C28.071 18.0268 26.8933 17.8261 25.6562 17.6965C24.9136 16.6969 24.1423 15.788 23.3667 14.9936C25.1597 13.3528 26.8428 12.4568 27.9875 12.4568V11.25C26.4736 11.25 24.4939 12.31 22.49 14.1494C20.4861 12.3208 18.5063 11.2716 16.9924 11.2716V12.4784C18.1306 12.4784 19.8203 13.3701 21.6155 14.9979C20.8442 15.7924 20.0752 16.6948 19.3435 17.6965C18.0999 17.8261 16.9221 18.0268 15.8433 18.2902C15.7158 17.7505 15.6235 17.2259 15.5576 16.7228C15.2983 14.6568 15.6191 13.0505 16.3618 12.6231C16.5266 12.5259 16.7419 12.4827 16.9946 12.4827V11.2781C16.5332 11.2781 16.1135 11.3752 15.751 11.5803C14.2041 12.4568 13.8569 15.1879 14.6567 18.6162C11.229 19.6525 9.00098 21.3127 9.00098 23.0657C9.00098 24.8231 11.24 26.4876 14.6743 27.5217C13.8811 30.9609 14.2349 33.6962 15.7861 34.5727C16.1443 34.7778 16.5618 34.875 17.0254 34.875C18.5393 34.875 20.519 33.815 22.5229 31.9756C24.5269 33.8042 26.5066 34.8534 28.0205 34.8534C28.4819 34.8534 28.9016 34.7563 29.2642 34.5512C30.811 33.6746 31.1582 30.9436 30.3584 27.5153C33.7729 26.4833 36.001 24.8166 36.001 23.0657ZM25.0103 23.0657C25.0103 21.7013 23.8853 20.5938 22.4944 20.5938C21.1057 20.5938 19.9785 21.6991 19.9785 23.0657C19.9785 24.4323 21.1035 25.5377 22.4944 25.5377C23.8853 25.5355 25.0103 24.4302 25.0103 23.0657ZM28.8357 19.4582C28.6313 20.1555 28.3787 20.8744 28.093 21.5934C27.8667 21.1616 27.6316 20.7276 27.3723 20.2959C27.1196 19.8641 26.8494 19.4409 26.5791 19.0307C27.3613 19.1451 28.115 19.2855 28.8357 19.4582ZM26.3154 25.2182C25.887 25.9479 25.4453 26.6409 24.9883 27.2843C24.1687 27.3555 23.3381 27.3922 22.501 27.3922C21.6704 27.3922 20.8398 27.3533 20.0247 27.2886C19.5676 26.6452 19.1216 25.9587 18.6931 25.2333C18.2756 24.5252 17.8955 23.8062 17.5483 23.0808C17.8889 22.3555 18.2756 21.6322 18.6865 20.9241C19.115 20.1944 19.5566 19.5014 20.0137 18.858C20.8333 18.7868 21.6638 18.7501 22.501 18.7501C23.3315 18.7501 24.1621 18.7889 24.9773 18.8537C25.4343 19.4971 25.8804 20.1836 26.3088 20.909C26.7263 21.6171 27.1064 22.336 27.4536 23.0614C27.1064 23.7847 26.7285 24.5079 26.3154 25.2182ZM28.093 24.5144C28.3896 25.2398 28.6423 25.963 28.8533 26.6668C28.1326 26.8395 27.3723 26.9863 26.5857 27.0986C26.856 26.6819 27.124 26.2545 27.3789 25.8162C27.6294 25.3844 27.8667 24.9462 28.093 24.5144ZM22.512 30.283C22 29.7648 21.488 29.1863 20.9827 28.5537C21.477 28.5753 21.9846 28.5926 22.4966 28.5926C23.0129 28.5926 23.5249 28.5818 24.0259 28.5537C23.5293 29.1863 23.0173 29.7648 22.512 30.283ZM18.4185 27.0986C17.6362 26.9842 16.8826 26.8438 16.1619 26.6711C16.3662 25.9738 16.6189 25.2549 16.9045 24.536C17.1309 24.9677 17.366 25.4017 17.6252 25.8335C17.8845 26.2674 18.1482 26.6884 18.4185 27.0986ZM22.4834 15.8463C22.9954 16.3645 23.5073 16.9431 24.0127 17.5756C23.5183 17.554 23.0107 17.5368 22.4988 17.5368C21.9824 17.5368 21.4705 17.5476 20.9695 17.5756C21.4661 16.9431 21.978 16.3645 22.4834 15.8463ZM18.4119 19.0307C18.1416 19.4474 17.8735 19.8749 17.6187 20.3131C17.366 20.7449 17.1287 21.1788 16.9023 21.6106C16.6057 20.8852 16.353 20.162 16.1421 19.4582C16.865 19.2898 17.6252 19.1451 18.4119 19.0307ZM13.4307 25.8011C11.4817 24.985 10.2227 23.9142 10.2227 23.0657C10.2227 22.2173 11.4839 21.14 13.4307 20.3304C13.9031 20.1296 14.4216 19.9526 14.9556 19.7842C15.2698 20.8442 15.6829 21.9474 16.1948 23.0765C15.6895 24.2013 15.2808 25.2981 14.9731 26.3538C14.4282 26.1854 13.9097 26.0019 13.4307 25.8011ZM16.3926 33.5278C15.6433 33.1068 15.3203 31.5006 15.573 29.4345C15.6345 28.9272 15.7334 28.3918 15.8542 27.8456C16.9331 28.1046 18.1108 28.3054 19.3479 28.435C20.0906 29.4345 20.8618 30.3434 21.6374 31.1379C19.8423 32.7765 18.1592 33.6746 17.0144 33.6746C16.7661 33.6682 16.5574 33.6207 16.3926 33.5278ZM29.4465 29.4086C29.7058 31.4747 29.385 33.0809 28.6423 33.5084C28.4775 33.6056 28.2622 33.6487 28.0095 33.6487C26.8713 33.6487 25.1816 32.7571 23.3865 31.1293C24.1577 30.3348 24.9268 29.4324 25.6584 28.4306C26.9021 28.3011 28.0798 28.1003 29.1587 27.8348C29.2861 28.381 29.385 28.9056 29.4465 29.4086ZM31.5647 25.8011C31.0923 26.0019 30.5737 26.1789 30.0398 26.3473C29.7256 25.2873 29.3125 24.1841 28.8005 23.0549C29.3059 21.9301 29.7146 20.8334 30.0222 19.7777C30.5671 19.9461 31.0835 20.1296 31.5691 20.3282C33.5181 21.1443 34.7771 22.2151 34.7771 23.0636C34.7727 23.9142 33.5137 24.9893 31.5647 25.8011Z" fill="white"/>
</g>
<defs>
<clipPath id="clip0_113_124">
<rect width="27" height="23.625" fill="white" transform="translate(9.00098 11.25)"/>
</clipPath>
</defs>
</svg>
