<svg width="53" height="17" viewBox="0 0 53 17" fill="none" xmlns="http://www.w3.org/2000/svg">
<path d="M0 17V4.4792H3.40786V17H0ZM0 3.5886V0H3.40786V3.5886H0Z" fill="#FA331A"/>
<path d="M10.5925 17V14.7735H8.23119V8.0416H5.86983V4.4792H8.23119V0H11.639V4.4792H18.7768V8.0416H11.639V13.4376H17.7303V11.1849H21.1649V14.7735H18.7768V17H10.5925Z" fill="#FA331A"/>
<path d="M26.2862 17V14.7735H23.9248V4.4792H27.3327V13.4376H33.3971V4.4792H36.8317V14.7735H34.4436V17H26.2862Z" fill="#FA331A"/>
<path d="M40.0931 17V13.4376H42.4544V11.1849H44.8158V10.2681H42.4544V8.0416H40.0931V4.4792H43.5009V6.73189H45.8623V8.9322H47.204V6.73189H49.5653V4.4792H53V8.0416H50.6118V10.2681H48.2505V11.1849H50.6118V13.4376H53V17H49.5653V14.7735H47.204V12.5208H45.8623V14.7735H43.5009V17H40.0931Z" fill="#FA331A"/>
</svg>
