<svg width="314" height="177" viewBox="0 0 314 177" fill="none" xmlns="http://www.w3.org/2000/svg">
<rect x="128" y="74" width="105" height="48" rx="24" fill="#4EB2D5"/>
<path d="M150.16 94.8C150.16 94.0667 149.913 93.4867 149.42 93.06C148.94 92.62 148.22 92.4 147.26 92.4H143.3V97.18H147.32C148.227 97.18 148.927 96.9667 149.42 96.54C149.913 96.1133 150.16 95.5333 150.16 94.8ZM141.7 105V91H147.4C148.387 91 149.2 91.1667 149.84 91.5C150.48 91.8333 150.953 92.2733 151.26 92.82C151.58 93.3533 151.74 93.9467 151.74 94.6C151.74 95.24 151.62 95.78 151.38 96.22C151.153 96.6467 150.84 96.9867 150.44 97.24C150.053 97.4933 149.627 97.6667 149.16 97.76V97.9C149.72 97.98 150.22 98.16 150.66 98.44C151.1 98.7067 151.447 99.0733 151.7 99.54C151.953 100.007 152.08 100.573 152.08 101.24C152.08 101.933 151.907 102.567 151.56 103.14C151.213 103.713 150.7 104.167 150.02 104.5C149.353 104.833 148.533 105 147.56 105H141.7ZM143.3 103.6H147.44C148.4 103.6 149.147 103.387 149.68 102.96C150.227 102.52 150.5 101.893 150.5 101.08C150.5 100.267 150.213 99.6467 149.64 99.22C149.08 98.7933 148.327 98.58 147.38 98.58H143.3V103.6ZM158.943 105.14C158.01 105.14 157.176 104.913 156.443 104.46C155.723 104.007 155.156 103.387 154.743 102.6C154.33 101.813 154.123 100.913 154.123 99.9C154.123 98.9267 154.33 98.06 154.743 97.3C155.156 96.54 155.723 95.9467 156.443 95.52C157.163 95.08 157.983 94.86 158.903 94.86C159.81 94.86 160.616 95.06 161.323 95.46C162.043 95.86 162.603 96.4133 163.003 97.12C163.403 97.8267 163.59 98.6333 163.563 99.54C163.563 99.6867 163.556 99.84 163.543 100C163.53 100.16 163.516 100.333 163.503 100.52H155.763C155.79 101.147 155.943 101.7 156.223 102.18C156.503 102.66 156.87 103.04 157.323 103.32C157.79 103.587 158.316 103.72 158.903 103.72C159.676 103.72 160.33 103.573 160.863 103.28C161.41 102.987 161.803 102.567 162.043 102.02L163.343 102.54C162.943 103.38 162.363 104.027 161.603 104.48C160.843 104.92 159.956 105.14 158.943 105.14ZM161.923 99.22C161.936 98.6467 161.81 98.14 161.543 97.7C161.29 97.26 160.93 96.9133 160.463 96.66C159.996 96.4067 159.456 96.28 158.843 96.28C158.31 96.28 157.823 96.4067 157.383 96.66C156.943 96.9133 156.576 97.2667 156.283 97.72C156.003 98.16 155.836 98.66 155.783 99.22H161.923ZM166.032 90.6H167.532V96.36C167.852 95.88 168.286 95.5133 168.832 95.26C169.379 94.9933 169.992 94.86 170.672 94.86C171.406 94.86 172.059 95.0267 172.632 95.36C173.206 95.6933 173.652 96.1867 173.972 96.84C174.306 97.4933 174.472 98.3067 174.472 99.28V105H172.872V99.46C172.872 98.42 172.652 97.6267 172.212 97.08C171.772 96.52 171.132 96.24 170.292 96.24C169.426 96.24 168.746 96.5333 168.252 97.12C167.772 97.7067 167.532 98.56 167.532 99.68V105H166.032V90.6ZM183.64 105L183.52 103.2C183.24 103.813 182.827 104.293 182.28 104.64C181.733 104.973 181.04 105.14 180.2 105.14C179.48 105.14 178.867 105.027 178.36 104.8C177.853 104.573 177.46 104.253 177.18 103.84C176.913 103.413 176.78 102.913 176.78 102.34C176.78 101.5 177.093 100.813 177.72 100.28C178.347 99.7333 179.253 99.4 180.44 99.28L183.52 98.94V98.14C183.52 97.58 183.313 97.1333 182.9 96.8C182.487 96.4533 181.927 96.28 181.22 96.28C180.527 96.28 179.947 96.44 179.48 96.76C179.027 97.08 178.713 97.54 178.54 98.14L177.18 97.66C177.447 96.78 177.933 96.0933 178.64 95.6C179.36 95.1067 180.233 94.86 181.26 94.86C182.447 94.86 183.367 95.1667 184.02 95.78C184.687 96.38 185.02 97.2 185.02 98.24V105H183.64ZM183.52 100.22L180.42 100.58C179.753 100.66 179.247 100.847 178.9 101.14C178.553 101.42 178.38 101.793 178.38 102.26C178.38 102.727 178.547 103.1 178.88 103.38C179.227 103.66 179.72 103.8 180.36 103.8C181.093 103.8 181.693 103.653 182.16 103.36C182.627 103.067 182.967 102.673 183.18 102.18C183.407 101.673 183.52 101.127 183.52 100.54V100.22ZM187.946 95H189.326L189.406 96.42C189.726 95.9267 190.146 95.5467 190.666 95.28C191.186 95 191.793 94.86 192.486 94.86C193.246 94.86 193.913 95.0267 194.486 95.36C195.06 95.68 195.506 96.1667 195.826 96.82C196.146 97.46 196.306 98.2667 196.306 99.24V105H194.806V99.42C194.806 98.38 194.58 97.5933 194.126 97.06C193.686 96.5133 193.046 96.24 192.206 96.24C191.34 96.24 190.66 96.5267 190.166 97.1C189.686 97.6733 189.446 98.52 189.446 99.64V105H187.946V95ZM203.476 105.14C202.502 105.14 201.649 104.927 200.916 104.5C200.182 104.073 199.609 103.48 199.196 102.72C198.796 101.947 198.596 101.053 198.596 100.04C198.596 99.0133 198.796 98.1133 199.196 97.34C199.609 96.5533 200.182 95.9467 200.916 95.52C201.649 95.08 202.502 94.86 203.476 94.86C204.502 94.86 205.402 95.1 206.176 95.58C206.949 96.0467 207.509 96.7 207.856 97.54L206.476 98.02C206.276 97.4867 205.909 97.0667 205.376 96.76C204.856 96.44 204.249 96.28 203.556 96.28C202.876 96.28 202.282 96.4333 201.776 96.74C201.282 97.0467 200.896 97.48 200.616 98.04C200.349 98.6 200.216 99.26 200.216 100.02C200.216 101.14 200.516 102.04 201.116 102.72C201.716 103.387 202.516 103.72 203.516 103.72C204.196 103.72 204.802 103.567 205.336 103.26C205.869 102.953 206.262 102.54 206.516 102.02L207.876 102.5C207.516 103.327 206.949 103.973 206.176 104.44C205.402 104.907 204.502 105.14 203.476 105.14ZM214.529 105.14C213.596 105.14 212.762 104.913 212.029 104.46C211.309 104.007 210.742 103.387 210.329 102.6C209.916 101.813 209.709 100.913 209.709 99.9C209.709 98.9267 209.916 98.06 210.329 97.3C210.742 96.54 211.309 95.9467 212.029 95.52C212.749 95.08 213.569 94.86 214.489 94.86C215.396 94.86 216.202 95.06 216.909 95.46C217.629 95.86 218.189 96.4133 218.589 97.12C218.989 97.8267 219.176 98.6333 219.149 99.54C219.149 99.6867 219.142 99.84 219.129 100C219.116 100.16 219.102 100.333 219.089 100.52H211.349C211.376 101.147 211.529 101.7 211.809 102.18C212.089 102.66 212.456 103.04 212.909 103.32C213.376 103.587 213.902 103.72 214.489 103.72C215.262 103.72 215.916 103.573 216.449 103.28C216.996 102.987 217.389 102.567 217.629 102.02L218.929 102.54C218.529 103.38 217.949 104.027 217.189 104.48C216.429 104.92 215.542 105.14 214.529 105.14ZM217.509 99.22C217.522 98.6467 217.396 98.14 217.129 97.7C216.876 97.26 216.516 96.9133 216.049 96.66C215.582 96.4067 215.042 96.28 214.429 96.28C213.896 96.28 213.409 96.4067 212.969 96.66C212.529 96.9133 212.162 97.2667 211.869 97.72C211.589 98.16 211.422 98.66 211.369 99.22H217.509Z" fill="black"/>
<rect x="9" y="81.929" width="77" height="48" rx="24" transform="rotate(-15 9 81.929)" fill="#FDE650"/>
<path d="M28.1784 94.3897L31.4395 106.56L37.7567 104.868L38.119 106.22L30.2564 108.327L26.6329 94.8038L28.1784 94.3897ZM44.3475 104.696C43.4331 104.941 42.5618 104.961 41.7336 104.755C40.9053 104.549 40.1868 104.134 39.578 103.51C38.9657 102.873 38.5233 102.047 38.2506 101.029C37.9746 99.9987 37.9425 99.0549 38.1545 98.1975C38.3794 97.3366 38.7989 96.6099 39.4131 96.0174C40.0403 95.4215 40.811 95.001 41.7254 94.756C42.6399 94.5109 43.5112 94.4914 44.3394 94.6974C45.1805 94.9 45.9071 95.3195 46.5194 95.9561C47.1411 96.5763 47.5883 97.3951 47.8609 98.4126C48.137 99.4429 48.1626 100.388 47.9377 101.249C47.7129 102.11 47.2869 102.839 46.6598 103.435C46.0326 104.031 45.2619 104.451 44.3475 104.696ZM43.9606 103.33C44.5273 103.178 45.029 102.912 45.4657 102.533C45.899 102.141 46.1994 101.639 46.367 101.028C46.5441 100.401 46.5221 99.6754 46.3013 98.8512C46.077 98.0141 45.7395 97.3729 45.2889 96.9277C44.8384 96.4824 44.3291 96.2048 43.7613 96.0947C43.2029 95.9682 42.6403 95.9809 42.0737 96.1328C41.507 96.2846 41.0134 96.5549 40.5931 96.9436C40.1692 97.3194 39.8752 97.8192 39.7111 98.443C39.5563 99.0504 39.5894 99.7662 39.8103 100.59C40.0346 101.428 40.3656 102.07 40.8033 102.519C41.241 102.968 41.7326 103.257 42.2782 103.387C42.8331 103.501 43.394 103.481 43.9606 103.33ZM49.5633 92.8007L48.8387 90.0962L50.2875 89.7079L51.0122 92.4125L53.5816 91.7241L53.9439 93.0764L51.3746 93.7648L52.767 98.9615C52.9258 99.5539 53.1637 99.9526 53.4809 100.157C53.8109 100.359 54.1761 100.434 54.5762 100.382C54.9893 100.326 55.4014 100.216 55.8126 100.05L56.1491 101.306C55.6779 101.557 55.1906 101.722 54.6874 101.801C54.1971 101.877 53.7277 101.851 53.2792 101.723C52.8402 101.578 52.4461 101.318 52.0969 100.942C51.7606 100.563 51.501 100.032 51.3181 99.3497L49.9257 94.153L48.4768 94.5413L48.1145 93.189L49.5633 92.8007ZM56.355 90.9809L55.6303 88.2763L57.0792 87.8881L57.8039 90.5927L60.3733 89.9042L60.7356 91.2565L58.1662 91.945L59.5587 97.1417C59.7174 97.7341 59.9554 98.1328 60.2726 98.3377C60.6026 98.5391 60.9677 98.6138 61.3679 98.5618C61.781 98.5063 62.1931 98.3959 62.6043 98.2305L62.9407 99.4862C62.4695 99.7367 61.9823 99.9018 61.4791 99.9814C60.9888 100.058 60.5194 100.031 60.0709 99.9032C59.6318 99.7586 59.2377 99.4984 58.8886 99.1226C58.5523 98.7434 58.2927 98.2125 58.1098 97.5299L56.7174 92.3332L55.2685 92.7214L54.9061 91.3692L56.355 90.9809ZM62.8183 89.2491L64.2478 88.866L66.836 98.5253L65.4065 98.9084L62.8183 89.2491ZM63.0347 87.1205C62.7385 87.1999 62.4679 87.1689 62.223 87.0275C61.978 86.886 61.8176 86.6737 61.7417 86.3903C61.6623 86.0941 61.6933 85.8235 61.8348 85.5786C61.9762 85.3336 62.195 85.1715 62.4912 85.0921C62.7617 85.0196 63.0194 85.0541 63.2643 85.1955C63.5221 85.3335 63.6907 85.5506 63.7701 85.8468C63.846 86.1301 63.8068 86.396 63.6525 86.6444C63.5111 86.8894 63.3052 87.0481 63.0347 87.1205ZM74.1904 96.6997C73.2888 96.9412 72.4252 96.938 71.5995 96.6899C70.7867 96.4383 70.0789 95.9861 69.4761 95.3332C68.8732 94.6804 68.4406 93.8645 68.1784 92.8857C67.9265 91.9455 67.9018 91.0549 68.1043 90.2138C68.3069 89.3728 68.7007 88.653 69.2857 88.0545C69.8673 87.4431 70.6024 87.0184 71.4911 86.7803C72.3668 86.5456 73.1978 86.53 73.9839 86.7335C74.7829 86.9335 75.467 87.3231 76.0363 87.9021C76.6056 88.4812 76.9946 89.2121 77.2035 90.0947C77.2415 90.2364 77.2748 90.3862 77.3033 90.5442C77.3318 90.7022 77.3638 90.8731 77.3992 91.0569L69.923 93.0601C70.1109 93.6585 70.4022 94.1533 70.7969 94.5445C71.1916 94.9357 71.6441 95.2078 72.1545 95.361C72.6743 95.4978 73.2175 95.4902 73.7842 95.3384C74.5312 95.1382 75.1243 94.8275 75.5635 94.4061C76.0156 93.9813 76.2869 93.4738 76.3772 92.8836L77.7675 93.0494C77.5985 93.9644 77.2057 94.7391 76.5889 95.3737C75.9687 95.9954 75.1692 96.4374 74.1904 96.6997ZM75.5366 90.2101C75.4011 89.6528 75.1476 89.1962 74.7761 88.8402C74.4176 88.4808 73.9801 88.2391 73.4638 88.1152C72.9474 87.9913 72.3931 88.0087 71.8006 88.1674C71.2855 88.3055 70.8482 88.5538 70.4887 88.9124C70.1293 89.2709 69.8666 89.7071 69.7006 90.2209C69.544 90.7184 69.5124 91.2445 69.6058 91.7992L75.5366 90.2101Z" fill="black"/>
<rect x="61" y="5" width="102" height="48" rx="24" transform="rotate(30 61 5)" fill="#A8C7FC"/>
<path d="M59.8198 36.0038C59.7091 36.3555 59.6735 36.7506 59.7128 37.1891C59.7705 37.6226 59.9356 38.0567 60.2082 38.4912C60.499 38.9208 60.9561 39.3156 61.5797 39.6756C62.4688 40.189 63.247 40.3611 63.9142 40.1921C64.5815 40.0231 65.0784 39.6556 65.4051 39.0898C65.6651 38.6395 65.7572 38.2 65.6813 37.7713C65.6055 37.3427 65.4131 36.9159 65.1041 36.4912C64.8017 36.0549 64.4341 35.6117 64.0011 35.1616C63.6126 34.7679 63.2307 34.3627 62.8555 33.9459C62.4985 33.5242 62.2019 33.0913 61.9657 32.647C61.7362 32.1912 61.6218 31.7094 61.6224 31.2017C61.623 30.694 61.7866 30.1572 62.1133 29.5914C62.5066 28.9101 63.0083 28.4146 63.6183 28.1047C64.2349 27.7833 64.9177 27.654 65.6666 27.7169C66.4155 27.7798 67.1825 28.0379 67.9677 28.4912C68.649 28.8846 69.187 29.326 69.5817 29.8157C69.9765 30.3053 70.2379 30.8258 70.3661 31.3771C70.5125 31.9235 70.5332 32.4743 70.4282 33.0295L68.9285 32.7871C69.001 32.4749 68.9918 32.1309 68.9008 31.755C68.8165 31.3677 68.6363 30.9865 68.3602 30.6115C68.084 30.2365 67.7092 29.9123 67.2358 29.639C66.7739 29.3723 66.3057 29.2098 65.8314 29.1515C65.3685 29.0998 64.9407 29.1608 64.548 29.3343C64.1553 29.5079 63.8356 29.8083 63.5889 30.2355C63.3223 30.6974 63.2359 31.1402 63.33 31.564C63.4422 31.9829 63.662 32.4023 63.9892 32.8222C64.3347 33.2372 64.7239 33.6697 65.1568 34.1199C65.5436 34.5433 65.9063 34.9683 66.2451 35.3948C66.5955 35.828 66.8705 36.2717 67.0702 36.7257C67.2815 37.1864 67.3811 37.6673 67.3689 38.1683C67.3568 38.6694 67.1907 39.197 66.8707 39.7513C66.5174 40.3633 66.043 40.8515 65.4477 41.216C64.859 41.569 64.1769 41.7371 63.4013 41.7204C62.644 41.6988 61.8092 41.4247 60.897 40.8981C60.1349 40.4581 59.5318 39.9559 59.0878 39.3916C58.6505 38.8158 58.3637 38.2192 58.2275 37.6017C58.0914 36.9842 58.104 36.3757 58.2654 35.7761L59.8198 36.0038ZM82.5893 37.0946L84.0615 37.9446L72.4543 47.409L70.8608 46.489L73.3228 31.7446L74.7951 32.5946L72.5422 45.4968L82.5893 37.0946ZM93.4235 48.1995C93.4847 47.0802 93.2683 46.1084 92.7741 45.2843C92.2867 44.4486 91.5984 43.7741 90.7093 43.2607C89.8317 42.7541 88.9241 42.4995 87.9864 42.497C87.0487 42.4944 86.1644 42.746 85.3336 43.2517C84.5028 43.7574 83.794 44.5183 83.2074 45.5344C82.6274 46.539 82.3261 47.5275 82.3036 48.4998C82.2811 49.4721 82.5053 50.3637 82.9764 51.1745C83.4474 51.9853 84.1217 52.6441 84.9993 53.1507C85.6575 53.5307 86.3328 53.7744 87.0253 53.8817C87.7244 53.9774 88.4018 53.9374 89.0575 53.7617C89.7199 53.5745 90.3307 53.2497 90.8901 52.7875L91.7001 51.3845L87.5432 48.9845L88.1932 47.8587L93.7531 51.0687L92.2531 53.6668C91.5408 54.2871 90.74 54.7408 89.8506 55.0279C88.9613 55.315 88.0355 55.4118 87.0734 55.3182C86.1113 55.2246 85.1799 54.9178 84.2793 54.3978C83.4248 53.9045 82.7147 53.2944 82.149 52.5675C81.5949 51.8473 81.1974 51.0558 80.9565 50.1931C80.7338 49.3255 80.6832 48.4264 80.8048 47.4959C80.9445 46.5604 81.2778 45.6366 81.8044 44.7244C82.3311 43.8122 82.9612 43.0675 83.6948 42.4903C84.4465 41.9081 85.2504 41.5024 86.1065 41.273C86.9807 41.0388 87.8683 40.9815 88.769 41.1013C89.6814 41.2278 90.5648 41.5376 91.4193 42.031C92.216 42.491 92.8841 43.0538 93.4236 43.7194C93.9813 44.3801 94.3882 45.1153 94.6442 45.9252C94.9069 46.7235 94.9909 47.5648 94.896 48.4492L93.4235 48.1995ZM97.6433 61.9519L98.4394 60.333C97.8902 60.7242 97.2923 60.9332 96.6455 60.9601C96.0054 60.9755 95.3216 60.7731 94.5942 60.3531C93.9706 59.9931 93.4961 59.5883 93.1707 59.1387C92.8452 58.6891 92.6646 58.2153 92.6288 57.7173C92.6112 57.2145 92.7457 56.7148 93.0324 56.2183C93.4524 55.4908 94.0671 55.0528 94.8764 54.9043C95.6925 54.7442 96.6443 54.9088 97.732 55.3982L100.569 56.6438L100.969 55.951C101.249 55.466 101.294 54.9758 101.102 54.4805C100.918 53.9736 100.52 53.5435 99.9075 53.1902C99.3071 52.8435 98.7248 52.6921 98.1606 52.7358C97.608 52.7863 97.1067 53.028 96.6566 53.461L95.7188 52.3653C96.3897 51.7365 97.1545 51.3852 98.0132 51.3113C98.8834 51.244 99.763 51.4671 100.652 51.9804C101.68 52.5737 102.323 53.2993 102.582 54.1571C102.86 55.0101 102.738 55.8869 102.218 56.7876L98.8384 62.6419L97.6433 61.9519ZM99.9294 57.7523L97.0647 56.5141C96.4474 56.25 95.9152 56.1583 95.4683 56.239C95.0281 56.3082 94.6913 56.5448 94.458 56.949C94.2247 57.3531 94.1824 57.7598 94.331 58.1689C94.4913 58.5848 94.8485 58.9527 95.4027 59.2727C96.0378 59.6393 96.6308 59.8123 97.1816 59.7916C97.7324 59.7709 98.2235 59.6003 98.6549 59.2797C99.1046 58.9543 99.4761 58.5375 99.7694 58.0294L99.9294 57.7523ZM106.927 55.7648L108.327 53.34L109.626 54.09L108.226 56.5148L110.53 57.8448L109.83 59.0573L107.526 57.7273L104.836 62.3865C104.529 62.9177 104.416 63.3678 104.495 63.737C104.586 64.1128 104.791 64.4238 105.111 64.67C105.442 64.9228 105.812 65.1362 106.22 65.31L105.57 66.4358C105.059 66.2797 104.598 66.0519 104.186 65.7524C103.785 65.4596 103.472 65.1092 103.246 64.7014C103.037 64.2886 102.943 63.826 102.961 63.3134C102.992 62.8074 103.184 62.2485 103.537 61.6365L106.227 56.9773L104.928 56.2273L105.628 55.0148L106.927 55.7648ZM111.133 69.902C110.313 69.4286 109.683 68.8263 109.244 68.095C108.804 67.3637 108.589 66.5623 108.599 65.6908C108.616 64.8078 108.888 63.9101 109.415 62.9979C109.948 62.0742 110.593 61.3841 111.349 60.9277C112.117 60.478 112.928 60.2608 113.781 60.2762C114.646 60.2982 115.488 60.5459 116.308 61.0192C117.128 61.4926 117.758 62.0949 118.198 62.8262C118.649 63.5641 118.866 64.3746 118.849 65.2577C118.85 66.1359 118.587 67.0311 118.061 67.9433C117.527 68.867 116.877 69.5538 116.109 70.0035C115.341 70.4532 114.525 70.6671 113.66 70.645C112.795 70.623 111.953 70.3753 111.133 69.902ZM111.826 68.6622C112.334 68.9555 112.877 69.1225 113.454 69.1631C114.037 69.1922 114.604 69.05 115.155 68.7366C115.723 68.4183 116.221 67.8896 116.648 67.1506C117.081 66.4 117.296 65.708 117.292 65.0746C117.288 64.4412 117.125 63.8848 116.801 63.4054C116.495 62.9211 116.089 62.5323 115.581 62.239C115.072 61.9456 114.532 61.7878 113.96 61.7654C113.395 61.7315 112.834 61.877 112.276 62.2019C111.737 62.522 111.255 63.0516 110.828 63.7906C110.395 64.5412 110.174 65.2298 110.166 65.8566C110.159 66.4833 110.302 67.0355 110.596 67.5131C110.908 67.9858 111.318 68.3689 111.826 68.6622ZM122.678 64.8589L123.874 65.5489L123.213 66.8533C123.624 66.6749 124.054 66.5693 124.504 66.5366C124.966 66.5105 125.416 66.5704 125.855 66.7162C126.313 66.8572 126.743 67.0981 127.147 67.4389L126.397 68.7379C125.965 68.3656 125.527 68.1122 125.081 67.9779C124.646 67.8503 124.217 67.8335 123.793 67.9276C123.37 68.0216 122.969 68.2216 122.593 68.5275C122.222 68.8219 121.891 69.2231 121.597 69.7312L118.977 74.2692L117.678 73.5192L122.678 64.8589Z" fill="black"/>
<rect x="229" y="26" width="92" height="48" rx="24" transform="rotate(30 229 26)" fill="#EF94FB"/>
<path d="M236.365 49.8825C237.705 50.6558 238.705 51.5641 239.365 52.6072C240.043 53.6456 240.373 54.7675 240.355 55.973C240.347 57.1852 239.981 58.4207 239.254 59.6793C238.534 60.9264 237.654 61.8502 236.615 62.4509C235.586 63.0582 234.453 63.3277 233.215 63.2594C231.988 63.1977 230.705 62.7801 229.365 62.0068L225.364 59.6968L232.364 47.5725L236.365 49.8825ZM230.065 60.7944C231.717 61.7477 233.207 62.0462 234.537 61.69C235.866 61.3337 236.971 60.3935 237.851 58.8693C238.738 57.3335 239.006 55.8951 238.657 54.5539C238.314 53.2012 237.317 52.0482 235.665 51.0949L233.05 49.5849L227.45 59.2844L230.065 60.7944ZM242.844 58.2417L244.039 58.9317L243.378 60.2361C243.789 60.0577 244.22 59.9521 244.67 59.9194C245.131 59.8933 245.582 59.9532 246.021 60.099C246.478 60.24 246.909 60.4809 247.313 60.8217L246.563 62.1208C246.131 61.7484 245.692 61.495 245.246 61.3608C244.812 61.2331 244.383 61.2163 243.959 61.3104C243.535 61.4044 243.135 61.6044 242.758 61.9103C242.388 62.2047 242.056 62.6059 241.763 63.114L239.143 67.652L237.844 66.902L242.844 58.2417ZM249.345 61.9952L250.627 62.7352L245.627 71.3955L244.345 70.6555L249.345 61.9952ZM251.003 60.6432C250.738 60.4898 250.569 60.2766 250.495 60.0034C250.422 59.7302 250.459 59.4666 250.606 59.2125C250.759 58.9469 250.972 58.7775 251.245 58.7043C251.519 58.6311 251.788 58.6712 252.053 58.8245C252.296 58.9645 252.454 59.1711 252.527 59.4443C252.612 59.7242 252.577 59.9969 252.424 60.2625C252.277 60.5166 252.062 60.6768 251.777 60.7434C251.504 60.8166 251.246 60.7832 251.003 60.6432ZM253.701 66.8427C254.262 66.4582 254.917 66.2437 255.667 66.1991C256.416 66.1544 257.206 66.3721 258.038 66.8521C258.834 67.3121 259.421 67.8969 259.796 68.6064C260.183 69.3225 260.345 70.1088 260.282 70.9652C260.237 71.8167 259.954 72.6928 259.434 73.5935C258.914 74.4942 258.293 75.1827 257.572 75.6591C256.85 76.1355 256.083 76.3851 255.269 76.4079C254.473 76.4259 253.683 76.2082 252.898 75.7549C252.112 75.3015 251.557 74.7574 251.23 74.1226C250.904 73.4877 250.748 72.8511 250.763 72.2128L249.746 73.7736L248.551 73.0836L255.751 60.6128L257.05 61.3628L253.83 66.9401L253.701 66.8427ZM258.031 72.7835C258.604 71.7904 258.798 70.8552 258.612 69.9779C258.444 69.0957 257.927 68.4046 257.061 67.9046C256.518 67.5912 255.95 67.4407 255.358 67.4529C254.784 67.4603 254.236 67.6365 253.714 67.9814C253.198 68.3149 252.743 68.8222 252.35 69.5035C251.957 70.1848 251.741 70.8379 251.704 71.4629C251.666 72.0878 251.788 72.6507 252.068 73.1514C252.36 73.6587 252.778 74.0691 253.321 74.3824C254.187 74.8824 255.04 74.9904 255.882 74.7064C256.741 74.4175 257.458 73.7765 258.031 72.7835ZM264.205 72.9072C264.766 72.5227 265.421 72.3081 266.17 72.2635C266.92 72.2189 267.71 72.4366 268.542 72.9166C269.338 73.3766 269.925 73.9613 270.3 74.6708C270.687 75.387 270.849 76.1733 270.786 77.0297C270.741 77.8812 270.458 78.7573 269.938 79.6579C269.418 80.5586 268.797 81.2471 268.076 81.7235C267.354 82.1999 266.587 82.4495 265.773 82.4724C264.977 82.4903 264.187 82.2726 263.402 81.8193C262.616 81.366 262.061 80.8219 261.734 80.187C261.408 79.5522 261.252 78.9156 261.267 78.2773L260.25 79.8381L259.055 79.1481L266.255 66.6773L267.554 67.4273L264.334 73.0045L264.205 72.9072ZM268.535 78.8479C269.108 77.8549 269.302 76.9197 269.116 76.0424C268.948 75.1601 268.431 74.469 267.564 73.969C267.022 73.6557 266.454 73.5051 265.862 73.5174C265.288 73.5247 264.74 73.7009 264.218 74.0459C263.702 74.3793 263.247 74.8867 262.854 75.5679C262.461 76.2492 262.245 76.9023 262.208 77.5273C262.17 78.1523 262.292 78.7151 262.572 79.2158C262.864 79.7232 263.282 80.1335 263.824 80.4469C264.691 80.9469 265.544 81.0549 266.386 80.7708C267.245 80.482 267.962 79.841 268.535 78.8479ZM276.759 72.7418L278.058 73.4918L270.858 85.9625L269.559 85.2125L276.759 72.7418ZM277.067 89.7092C276.259 89.2425 275.651 88.6295 275.242 87.8703C274.845 87.1177 274.665 86.2974 274.7 85.4094C274.735 84.5215 275.006 83.6388 275.513 82.7612C276 81.9182 276.612 81.271 277.35 80.8195C278.088 80.368 278.875 80.1375 279.712 80.128C280.556 80.1069 281.376 80.3264 282.173 80.7864C282.958 81.2397 283.556 81.8163 283.968 82.516C284.392 83.2224 284.6 83.9816 284.593 84.7936C284.586 85.6056 284.345 86.3975 283.868 87.1694C283.795 87.2964 283.712 87.4259 283.621 87.5578C283.529 87.6897 283.431 87.8331 283.326 87.9881L276.623 84.1181C276.333 84.6742 276.189 85.23 276.192 85.7857C276.194 86.3414 276.322 86.8538 276.574 87.323C276.845 87.7873 277.235 88.1661 277.743 88.4594C278.412 88.8461 279.051 89.0457 279.66 89.0583C280.28 89.0776 280.831 88.9106 281.312 88.5572L282.178 89.6575C281.411 90.1849 280.586 90.455 279.701 90.4676C278.823 90.4686 277.945 90.2158 277.067 89.7092ZM282.608 86.0723C282.906 85.5824 283.05 85.0803 283.039 84.5659C283.039 84.0582 282.901 83.578 282.624 83.1253C282.346 82.6725 281.942 82.2928 281.411 81.9862C280.949 81.7195 280.464 81.5859 279.956 81.5853C279.449 81.5847 278.954 81.7073 278.474 81.9532C278.011 82.1943 277.617 82.544 277.291 83.0023L282.608 86.0723Z" fill="black"/>
<rect x="136.423" width="82" height="48" rx="24" transform="rotate(15 136.423 0)" fill="#57CAAD"/>
<path d="M145.257 19.9665L154.124 22.3425L153.762 23.6948L146.44 21.7329L145.203 26.3501L150.708 27.8253L150.346 29.1776L144.84 27.7023L143.179 33.9036L141.633 33.4895L145.257 19.9665ZM155.695 26.9045L157.125 27.2876L154.536 36.9469L153.107 36.5638L155.695 26.9045ZM156.947 25.1694C156.65 25.09 156.432 24.9279 156.29 24.6829C156.149 24.438 156.116 24.1738 156.192 23.8905C156.271 23.5943 156.433 23.3755 156.678 23.234C156.923 23.0926 157.194 23.0616 157.49 23.141C157.761 23.2134 157.967 23.3721 158.108 23.6171C158.262 23.8655 158.3 24.1378 158.22 24.434C158.144 24.7173 157.978 24.928 157.72 25.066C157.475 25.2074 157.217 25.2419 156.947 25.1694ZM167.804 30.1492L169.137 30.5063L167.025 38.3883C166.708 39.5732 166.173 40.5134 165.42 41.2091C164.664 41.9176 163.726 42.3562 162.604 42.5249C161.478 42.7065 160.194 42.6041 158.752 42.2176L158.877 40.8225C160.7 41.2833 162.18 41.2726 163.317 40.7904C164.45 40.3211 165.203 39.391 165.576 38.0001L165.633 37.7876L165.777 37.8676C165.329 38.3549 164.754 38.7253 164.051 38.9786C163.351 39.2192 162.53 39.2199 161.586 38.9809C160.698 38.7427 159.972 38.3343 159.409 37.7556C158.863 37.1675 158.503 36.4499 158.33 35.6029C158.169 34.7592 158.224 33.8352 158.493 32.8306C158.762 31.826 159.175 31.005 159.732 30.3675C160.306 29.7206 160.977 29.2791 161.744 29.043C162.524 28.8103 163.358 28.813 164.247 29.0511C164.827 29.2064 165.318 29.4346 165.72 29.7357C166.126 30.0239 166.45 30.3593 166.693 30.7418C166.939 31.1114 167.117 31.5041 167.226 31.9199L167.804 30.1492ZM160.058 33.2499C159.761 34.3575 159.808 35.3156 160.198 36.1243C160.605 36.9235 161.298 37.4543 162.277 37.7166C162.87 37.8753 163.442 37.8768 163.994 37.7212C164.547 37.5655 165.031 37.2535 165.446 36.785C165.874 36.32 166.19 35.7076 166.394 34.9477C166.598 34.1879 166.628 33.506 166.487 32.902C166.361 32.2886 166.098 31.7764 165.697 31.3654C165.3 30.9415 164.806 30.6502 164.213 30.4914C163.247 30.2326 162.386 30.354 161.631 30.8555C160.875 31.357 160.351 32.1552 160.058 33.2499ZM172.101 31.3006L173.434 31.6578L173.158 33.0746C173.566 32.6869 174.044 32.4216 174.593 32.2789C175.158 32.1267 175.776 32.1403 176.446 32.3197C177.128 32.5026 177.702 32.8357 178.166 33.3189C178.646 33.7928 178.954 34.3931 179.091 35.1198C179.563 34.5424 180.145 34.1738 180.837 34.014C181.528 33.8542 182.241 33.8726 182.975 34.0694C183.696 34.2626 184.291 34.5944 184.758 35.0648C185.229 35.5223 185.535 36.108 185.675 36.8218C185.818 37.5229 185.764 38.3435 185.512 39.2836L184.021 44.8474L182.572 44.4591L184.017 39.0693C184.286 38.0647 184.271 37.2462 183.971 36.6137C183.687 35.9718 183.146 35.5438 182.348 35.3299C181.536 35.1125 180.816 35.2232 180.188 35.6622C179.563 36.0883 179.104 36.8488 178.811 37.9435L177.434 43.0822L175.985 42.694L177.429 37.3041C177.698 36.2995 177.696 35.4845 177.422 34.8589C177.151 34.2204 176.616 33.7942 175.818 33.5802C175.007 33.3628 174.293 33.4754 173.678 33.9178C173.079 34.3508 172.632 35.1147 172.339 36.2094L170.962 41.3481L169.513 40.9599L172.101 31.3006ZM192.879 47.2206L193.229 45.4509C192.799 45.9709 192.276 46.3275 191.658 46.5209C191.044 46.7014 190.331 46.6829 189.52 46.4655C188.824 46.2792 188.261 46.011 187.83 45.6609C187.4 45.3108 187.102 44.8999 186.939 44.4282C186.792 43.947 186.792 43.4296 186.941 42.8758C187.158 42.0644 187.639 41.4822 188.382 41.1293C189.129 40.7634 190.091 40.6761 191.268 40.8673L194.331 41.3361L194.538 40.5633C194.683 40.0224 194.599 39.5375 194.286 39.1085C193.977 38.6667 193.481 38.3543 192.798 38.1714C192.128 37.992 191.527 37.9964 190.993 38.1847C190.472 38.3765 190.051 38.7397 189.728 39.2744L188.538 38.4588C189.024 37.6778 189.672 37.1405 190.482 36.8468C191.305 36.5567 192.212 36.5444 193.204 36.8102C194.35 37.1173 195.16 37.6516 195.632 38.4132C196.121 39.1653 196.23 40.0436 195.961 41.0482L194.212 47.5778L192.879 47.2206ZM194 42.5725L190.912 42.1179C190.248 42.0226 189.71 42.0718 189.299 42.2654C188.892 42.4461 188.628 42.7619 188.507 43.2126C188.386 43.6634 188.451 44.0671 188.7 44.4239C188.962 44.784 189.403 45.047 190.021 45.2126C190.729 45.4024 191.347 45.416 191.873 45.2535C192.4 45.0909 192.83 44.799 193.164 44.3777C193.514 43.9469 193.765 43.4482 193.917 42.8816L194 42.5725Z" fill="black"/>
<rect x="185" y="130.058" width="120" height="48" rx="24" transform="rotate(-15 185 130.058)" fill="#A896FA"/>
<path d="M208.192 142.893L207.554 143.064L206.353 156.43L204.788 156.85L206.11 142.001L208.892 141.256L217.442 153.459L215.877 153.878L208.192 142.893ZM205.888 151.296L213.77 149.184L214.133 150.536L206.251 152.648L205.888 151.296ZM224.473 143.314L224.324 143.374L222.657 137.154L224.106 136.765L227.833 150.675L226.5 151.032L225.922 149.261C225.771 149.882 225.449 150.458 224.956 150.99C224.477 151.519 223.806 151.899 222.943 152.13C222.054 152.368 221.221 152.377 220.445 152.157C219.678 151.921 219.007 151.48 218.433 150.833C217.873 150.183 217.458 149.355 217.189 148.351C216.919 147.346 216.867 146.428 217.031 145.598C217.204 144.751 217.564 144.033 218.11 143.445C218.67 142.853 219.393 142.438 220.282 142.2C221.197 141.955 222.01 141.951 222.722 142.188C223.434 142.425 224.018 142.8 224.473 143.314ZM218.753 147.931C219.05 149.039 219.57 149.845 220.313 150.35C221.052 150.842 221.911 150.957 222.89 150.695C223.495 150.533 223.998 150.246 224.398 149.835C224.799 149.424 225.062 148.912 225.188 148.298C225.326 147.682 225.293 146.993 225.09 146.233C224.886 145.474 224.572 144.868 224.147 144.415C223.732 143.947 223.248 143.635 222.695 143.479C222.139 143.311 221.559 143.308 220.954 143.47C219.988 143.729 219.303 144.264 218.899 145.076C218.505 145.872 218.457 146.824 218.753 147.931ZM235.006 148.898C234.092 149.143 233.22 149.162 232.392 148.956C231.564 148.75 230.846 148.335 230.237 147.712C229.624 147.075 229.182 146.248 228.909 145.231C228.633 144.2 228.601 143.256 228.813 142.399C229.038 141.538 229.458 140.812 230.072 140.219C230.699 139.623 231.47 139.203 232.384 138.958C233.299 138.713 234.17 138.693 234.998 138.899C235.839 139.102 236.566 139.521 237.178 140.158C237.8 140.778 238.247 141.597 238.52 142.614C238.796 143.645 238.821 144.59 238.596 145.451C238.372 146.312 237.946 147.04 237.318 147.636C236.691 148.232 235.921 148.653 235.006 148.898ZM234.619 147.531C235.186 147.379 235.688 147.114 236.124 146.735C236.558 146.342 236.858 145.841 237.026 145.23C237.203 144.603 237.181 143.877 236.96 143.053C236.736 142.216 236.398 141.574 235.948 141.129C235.497 140.684 234.988 140.406 234.42 140.296C233.862 140.17 233.299 140.183 232.732 140.334C232.166 140.486 231.672 140.756 231.252 141.145C230.828 141.521 230.534 142.021 230.37 142.645C230.215 143.252 230.248 143.968 230.469 144.792C230.693 145.629 231.024 146.272 231.462 146.721C231.9 147.169 232.391 147.459 232.937 147.589C233.492 147.702 234.053 147.683 234.619 147.531ZM241.421 138.772C241.546 138.104 241.857 137.489 242.355 136.928C242.854 136.366 243.567 135.961 244.494 135.713C245.382 135.475 246.21 135.474 246.978 135.71C247.758 135.943 248.428 136.384 248.989 137.034C249.559 137.668 249.979 138.488 250.248 139.492C250.517 140.497 250.565 141.423 250.392 142.27C250.219 143.117 249.852 143.836 249.293 144.428C248.743 145.003 248.03 145.408 247.154 145.643C246.279 145.877 245.501 145.885 244.821 145.667C244.142 145.449 243.581 145.109 243.14 144.648L243.525 146.47L242.192 146.827L238.465 132.918L239.914 132.53L241.581 138.75L241.421 138.772ZM248.683 139.912C248.387 138.804 247.862 138.006 247.11 137.517C246.367 137.012 245.513 136.889 244.547 137.148C243.942 137.31 243.434 137.605 243.024 138.032C242.623 138.443 242.36 138.955 242.235 139.569C242.106 140.169 242.143 140.85 242.347 141.609C242.55 142.369 242.86 142.983 243.275 143.452C243.691 143.92 244.175 144.232 244.727 144.388C245.292 144.54 245.878 144.535 246.483 144.373C247.449 144.114 248.129 143.587 248.523 142.791C248.927 141.979 248.98 141.019 248.683 139.912ZM258.001 142.736C257.099 142.978 256.236 142.975 255.41 142.726C254.597 142.475 253.889 142.023 253.286 141.37C252.684 140.717 252.251 139.901 251.989 138.922C251.737 137.982 251.712 137.092 251.915 136.25C252.117 135.409 252.511 134.69 253.096 134.091C253.678 133.48 254.413 133.055 255.301 132.817C256.177 132.582 257.008 132.567 257.794 132.77C258.593 132.97 259.277 133.36 259.847 133.939C260.416 134.518 260.805 135.249 261.014 136.131C261.052 136.273 261.085 136.423 261.114 136.581C261.142 136.739 261.174 136.91 261.21 137.093L253.733 139.097C253.921 139.695 254.213 140.19 254.607 140.581C255.002 140.972 255.455 141.244 255.965 141.398C256.485 141.534 257.028 141.527 257.595 141.375C258.342 141.175 258.935 140.864 259.374 140.443C259.826 140.018 260.097 139.51 260.188 138.92L261.578 139.086C261.409 140.001 261.016 140.776 260.399 141.41C259.779 142.032 258.98 142.474 258.001 142.736ZM259.347 136.247C259.212 135.689 258.958 135.233 258.587 134.877C258.228 134.517 257.791 134.276 257.274 134.152C256.758 134.028 256.203 134.045 255.611 134.204C255.096 134.342 254.659 134.59 254.299 134.949C253.94 135.308 253.677 135.744 253.511 136.258C253.354 136.755 253.323 137.281 253.416 137.836L259.347 136.247ZM266.217 125.896L267.917 125.44L273.435 129.884L275.992 123.277L277.711 122.816L274.635 130.887L281.335 136.339L279.615 136.8L274.097 132.356L271.54 138.963L269.84 139.419L272.897 131.353L266.217 125.896ZM284.898 120.89C286.392 120.49 287.741 120.425 288.945 120.696C290.159 120.951 291.186 121.511 292.025 122.376C292.877 123.238 293.492 124.371 293.868 125.775C294.24 127.166 294.272 128.442 293.961 129.601C293.664 130.758 293.053 131.75 292.129 132.577C291.218 133.401 290.015 134.013 288.521 134.413L284.059 135.609L280.435 122.086L284.898 120.89ZM288.159 133.061C290.001 132.568 291.266 131.725 291.954 130.533C292.642 129.341 292.758 127.895 292.303 126.195C291.844 124.482 291.017 123.275 289.821 122.573C288.622 121.859 287.102 121.749 285.26 122.243L282.343 123.024L285.242 133.843L288.159 133.061Z" fill="black"/>
<rect y="123" width="177" height="48" rx="24" fill="#9AD1FC"/>
<path d="M19.08 141.4H18.42L13.8 154H12.18L17.3 140H20.18L25.28 154H23.66L19.08 141.4ZM14.68 148.92H22.84V150.32H14.68V148.92ZM27.5175 142.82C27.5175 142.087 27.6375 141.467 27.8775 140.96C28.1175 140.453 28.4975 140.087 29.0175 139.86C29.5508 139.62 30.2575 139.533 31.1375 139.6V140.94C30.3375 140.873 29.7842 141.007 29.4775 141.34C29.1708 141.66 29.0175 142.153 29.0175 142.82V144H31.2175V145.4H29.0175V154H27.5175V145.4H26.1175V144H27.5175V142.82ZM40.1619 142.06C39.8685 142.06 39.6152 141.96 39.4019 141.76C39.1885 141.547 39.0819 141.293 39.0819 141C39.0819 140.68 39.1885 140.42 39.4019 140.22C39.6152 140.007 39.8685 139.9 40.1619 139.9C40.4685 139.9 40.7219 140.007 40.9219 140.22C41.1352 140.42 41.2419 140.68 41.2419 141C41.2419 141.293 41.1352 141.547 40.9219 141.76C40.7219 141.96 40.4685 142.06 40.1619 142.06ZM40.8819 143.98V154H39.3819V145.38H32.6019V143.98H40.8819ZM34.0019 142.82C34.0019 142.087 34.1219 141.467 34.3619 140.96C34.6019 140.453 34.9819 140.087 35.5019 139.86C36.0352 139.62 36.7419 139.533 37.6219 139.6V140.94C36.8219 140.873 36.2685 141.007 35.9619 141.34C35.6552 141.66 35.5019 142.153 35.5019 142.82V154H34.0019V142.82ZM44.3213 144H45.7013L45.7813 145.42C46.1013 144.927 46.5213 144.547 47.0413 144.28C47.5613 144 48.1679 143.86 48.8613 143.86C49.6213 143.86 50.2879 144.027 50.8613 144.36C51.4346 144.68 51.8813 145.167 52.2013 145.82C52.5213 146.46 52.6813 147.267 52.6813 148.24V154H51.1813V148.42C51.1813 147.38 50.9546 146.593 50.5013 146.06C50.0613 145.513 49.4213 145.24 48.5813 145.24C47.7146 145.24 47.0346 145.527 46.5413 146.1C46.0613 146.673 45.8213 147.52 45.8213 148.64V154H44.3213V144ZM55.8908 144H57.3708V154H55.8908V144ZM56.6508 142C56.3441 142 56.0908 141.9 55.8908 141.7C55.6908 141.5 55.5908 141.253 55.5908 140.96C55.5908 140.653 55.6908 140.4 55.8908 140.2C56.0908 140 56.3441 139.9 56.6508 139.9C56.9308 139.9 57.1708 140 57.3708 140.2C57.5841 140.4 57.6908 140.653 57.6908 140.96C57.6908 141.253 57.5841 141.5 57.3708 141.7C57.1708 141.9 56.9308 142 56.6508 142ZM61.387 144V141.2H62.887V144H65.547V145.4H62.887V150.78C62.887 151.393 63.0137 151.84 63.267 152.12C63.5337 152.4 63.867 152.567 64.267 152.62C64.6804 152.673 65.107 152.673 65.547 152.62V153.92C65.027 154.04 64.5137 154.073 64.007 154.02C63.5137 153.967 63.067 153.82 62.667 153.58C62.2804 153.327 61.967 152.973 61.727 152.52C61.5004 152.067 61.387 151.487 61.387 150.78V145.4H59.887V144H61.387ZM74.5583 144H76.1183L70.3983 158H68.9583L70.6583 153.86L66.6183 144H68.2583L71.4583 152.08L74.5583 144ZM88.4177 140C89.9643 140 91.2843 140.287 92.3777 140.86C93.4843 141.42 94.331 142.227 94.9177 143.28C95.5177 144.333 95.8177 145.587 95.8177 147.04C95.8177 148.48 95.5177 149.72 94.9177 150.76C94.331 151.8 93.4843 152.6 92.3777 153.16C91.2843 153.72 89.9643 154 88.4177 154H83.7977V140H88.4177ZM88.4177 152.6C90.3243 152.6 91.7643 152.113 92.7377 151.14C93.711 150.167 94.1977 148.8 94.1977 147.04C94.1977 145.267 93.711 143.887 92.7377 142.9C91.7643 141.9 90.3243 141.4 88.4177 141.4H85.3977V152.6H88.4177ZM102.408 154.14C101.475 154.14 100.641 153.913 99.908 153.46C99.188 153.007 98.6213 152.387 98.208 151.6C97.7946 150.813 97.588 149.913 97.588 148.9C97.588 147.927 97.7946 147.06 98.208 146.3C98.6213 145.54 99.188 144.947 99.908 144.52C100.628 144.08 101.448 143.86 102.368 143.86C103.275 143.86 104.081 144.06 104.788 144.46C105.508 144.86 106.068 145.413 106.468 146.12C106.868 146.827 107.055 147.633 107.028 148.54C107.028 148.687 107.021 148.84 107.008 149C106.995 149.16 106.981 149.333 106.968 149.52H99.228C99.2546 150.147 99.408 150.7 99.688 151.18C99.968 151.66 100.335 152.04 100.788 152.32C101.255 152.587 101.781 152.72 102.368 152.72C103.141 152.72 103.795 152.573 104.328 152.28C104.875 151.987 105.268 151.567 105.508 151.02L106.808 151.54C106.408 152.38 105.828 153.027 105.068 153.48C104.308 153.92 103.421 154.14 102.408 154.14ZM105.388 148.22C105.401 147.647 105.275 147.14 105.008 146.7C104.755 146.26 104.395 145.913 103.928 145.66C103.461 145.407 102.921 145.28 102.308 145.28C101.775 145.28 101.288 145.407 100.848 145.66C100.408 145.913 100.041 146.267 99.748 146.72C99.468 147.16 99.3013 147.66 99.248 148.22H105.388ZM110.317 150.94C110.397 151.34 110.544 151.673 110.757 151.94C110.97 152.193 111.244 152.387 111.577 152.52C111.924 152.653 112.324 152.72 112.777 152.72C113.484 152.72 114.017 152.587 114.377 152.32C114.75 152.04 114.937 151.693 114.937 151.28C114.937 150.933 114.824 150.653 114.597 150.44C114.384 150.227 114.097 150.053 113.737 149.92C113.377 149.773 112.977 149.647 112.537 149.54C112.19 149.46 111.817 149.367 111.417 149.26C111.017 149.14 110.637 148.98 110.277 148.78C109.917 148.58 109.624 148.32 109.397 148C109.17 147.68 109.057 147.26 109.057 146.74C109.057 146.167 109.21 145.667 109.517 145.24C109.837 144.8 110.27 144.46 110.817 144.22C111.377 143.98 112.017 143.86 112.737 143.86C113.564 143.86 114.297 144.04 114.937 144.4C115.59 144.76 116.044 145.32 116.297 146.08L114.897 146.56C114.804 146.213 114.63 145.947 114.377 145.76C114.137 145.573 113.864 145.447 113.557 145.38C113.264 145.313 112.97 145.28 112.677 145.28C112.077 145.28 111.59 145.4 111.217 145.64C110.857 145.867 110.677 146.213 110.677 146.68C110.677 146.933 110.737 147.147 110.857 147.32C110.977 147.48 111.144 147.613 111.357 147.72C111.57 147.827 111.824 147.92 112.117 148C112.41 148.067 112.73 148.147 113.077 148.24C113.464 148.333 113.857 148.453 114.257 148.6C114.657 148.733 115.03 148.913 115.377 149.14C115.724 149.353 116.004 149.633 116.217 149.98C116.444 150.313 116.557 150.733 116.557 151.24C116.557 151.827 116.397 152.34 116.077 152.78C115.757 153.207 115.31 153.54 114.737 153.78C114.177 154.02 113.524 154.14 112.777 154.14C111.75 154.14 110.897 153.913 110.217 153.46C109.55 152.993 109.104 152.313 108.877 151.42L110.317 150.94ZM119.289 144H120.769V154H119.289V144ZM120.049 142C119.743 142 119.489 141.9 119.289 141.7C119.089 141.5 118.989 141.253 118.989 140.96C118.989 140.653 119.089 140.4 119.289 140.2C119.489 140 119.743 139.9 120.049 139.9C120.329 139.9 120.569 140 120.769 140.2C120.983 140.4 121.089 140.653 121.089 140.96C121.089 141.253 120.983 141.5 120.769 141.7C120.569 141.9 120.329 142 120.049 142ZM131.825 144H133.205V152.16C133.205 153.387 132.932 154.433 132.385 155.3C131.839 156.18 131.045 156.847 130.005 157.3C128.965 157.767 127.699 158 126.205 158L125.965 156.62C127.845 156.593 129.272 156.2 130.245 155.44C131.219 154.693 131.705 153.6 131.705 152.16V151.94L131.865 151.98C131.559 152.567 131.099 153.073 130.485 153.5C129.872 153.913 129.079 154.127 128.105 154.14C127.185 154.14 126.379 153.933 125.685 153.52C125.005 153.093 124.472 152.493 124.085 151.72C123.712 150.947 123.525 150.04 123.525 149C123.525 147.96 123.712 147.06 124.085 146.3C124.472 145.527 125.005 144.927 125.685 144.5C126.379 144.073 127.185 143.86 128.105 143.86C128.705 143.86 129.239 143.953 129.705 144.14C130.172 144.313 130.572 144.553 130.905 144.86C131.239 145.153 131.512 145.487 131.725 145.86L131.825 144ZM125.145 149C125.145 150.147 125.439 151.06 126.025 151.74C126.625 152.407 127.432 152.74 128.445 152.74C129.059 152.74 129.612 152.593 130.105 152.3C130.599 152.007 130.985 151.58 131.265 151.02C131.559 150.46 131.705 149.787 131.705 149C131.705 148.213 131.559 147.547 131.265 147C130.985 146.44 130.599 146.013 130.105 145.72C129.612 145.413 129.059 145.26 128.445 145.26C127.445 145.26 126.645 145.6 126.045 146.28C125.445 146.96 125.145 147.867 125.145 149ZM136.274 144H137.654L137.734 145.42C138.054 144.927 138.474 144.547 138.994 144.28C139.514 144 140.121 143.86 140.814 143.86C141.574 143.86 142.241 144.027 142.814 144.36C143.388 144.68 143.834 145.167 144.154 145.82C144.474 146.46 144.634 147.267 144.634 148.24V154H143.134V148.42C143.134 147.38 142.908 146.593 142.454 146.06C142.014 145.513 141.374 145.24 140.534 145.24C139.668 145.24 138.988 145.527 138.494 146.1C138.014 146.673 137.774 147.52 137.774 148.64V154H136.274V144ZM151.744 154.14C150.811 154.14 149.977 153.913 149.244 153.46C148.524 153.007 147.957 152.387 147.544 151.6C147.131 150.813 146.924 149.913 146.924 148.9C146.924 147.927 147.131 147.06 147.544 146.3C147.957 145.54 148.524 144.947 149.244 144.52C149.964 144.08 150.784 143.86 151.704 143.86C152.611 143.86 153.417 144.06 154.124 144.46C154.844 144.86 155.404 145.413 155.804 146.12C156.204 146.827 156.391 147.633 156.364 148.54C156.364 148.687 156.357 148.84 156.344 149C156.331 149.16 156.317 149.333 156.304 149.52H148.564C148.591 150.147 148.744 150.7 149.024 151.18C149.304 151.66 149.671 152.04 150.124 152.32C150.591 152.587 151.117 152.72 151.704 152.72C152.477 152.72 153.131 152.573 153.664 152.28C154.211 151.987 154.604 151.567 154.844 151.02L156.144 151.54C155.744 152.38 155.164 153.027 154.404 153.48C153.644 153.92 152.757 154.14 151.744 154.14ZM154.724 148.22C154.737 147.647 154.611 147.14 154.344 146.7C154.091 146.26 153.731 145.913 153.264 145.66C152.797 145.407 152.257 145.28 151.644 145.28C151.111 145.28 150.624 145.407 150.184 145.66C149.744 145.913 149.377 146.267 149.084 146.72C148.804 147.16 148.637 147.66 148.584 148.22H154.724ZM158.833 144H160.213L160.293 145.46C160.56 145.1 160.88 144.793 161.253 144.54C161.64 144.287 162.06 144.113 162.513 144.02C162.98 143.913 163.473 143.907 163.993 144V145.5C163.433 145.393 162.926 145.393 162.473 145.5C162.033 145.607 161.653 145.807 161.333 146.1C161.013 146.393 160.766 146.767 160.593 147.22C160.42 147.66 160.333 148.173 160.333 148.76V154H158.833V144Z" fill="black"/>
</svg>
